<svg width="36" height="29" viewBox="0 0 36 29" fill="none" xmlns="http://www.w3.org/2000/svg">
<path d="M0 0H8.18182V3.22222H3.27273V8.05556H0V0ZM27.8182 0H36V8.05556H32.7273V3.22222H27.8182V0ZM32.7273 25.7778V20.9444H36V29H27.8182V25.7778H32.7273ZM3.27273 20.9444V25.7778H8.18182V29H0V20.9444H3.27273ZM9.81818 4.83333H11.4545V24.1667H9.81818V4.83333ZM4.90909 4.83333H8.18182V24.1667H4.90909V4.83333ZM14.7273 4.83333H18V24.1667H14.7273V4.83333ZM26.1818 4.83333H27.8182V24.1667H26.1818V4.83333ZM29.4545 4.83333H31.0909V24.1667H29.4545V4.83333ZM19.6364 4.83333H24.5455V24.1667H19.6364V4.83333Z" fill="white"/>
</svg>
