<svg width="21" height="19" viewBox="0 0 21 19" fill="none" xmlns="http://www.w3.org/2000/svg">
<path d="M7.35 0L5.4285 2.1H2.1C0.945 2.1 0 3.045 0 4.2V16.8C0 17.955 0.945 18.9 2.1 18.9H18.9C20.055 18.9 21 17.955 21 16.8V4.2C21 3.045 20.055 2.1 18.9 2.1H15.5715L13.65 0H7.35ZM10.5 15.75C7.602 15.75 5.25 13.398 5.25 10.5C5.25 7.602 7.602 5.25 10.5 5.25C13.398 5.25 15.75 7.602 15.75 10.5C15.75 13.398 13.398 15.75 10.5 15.75Z" fill="url(#paint0_linear_206_239)"/>
<path d="M10.5003 14.6993L11.8128 11.8118L14.7003 10.4993L11.8128 9.18682L10.5003 6.29932L9.18779 9.18682L6.30029 10.4993L9.18779 11.8118L10.5003 14.6993Z" fill="url(#paint1_linear_206_239)"/>
<defs>
<linearGradient id="paint0_linear_206_239" x1="-2.22195e-08" y1="2.18077" x2="19.6269" y2="19.6269" gradientUnits="userSpaceOnUse">
<stop stop-color="#6701F5"/>
<stop offset="1" stop-color="#EA0594"/>
</linearGradient>
<linearGradient id="paint1_linear_206_239" x1="6.30029" y1="7.26855" x2="14.8697" y2="14.1241" gradientUnits="userSpaceOnUse">
<stop stop-color="#6701F5"/>
<stop offset="1" stop-color="#EA0594"/>
</linearGradient>
</defs>
</svg>
