<svg width="19" height="19" viewBox="0 0 19 19" fill="none" xmlns="http://www.w3.org/2000/svg">
<path d="M5.7017 19C5.17904 19 4.73178 18.8141 4.3599 18.4423C3.98739 18.0699 3.80113 17.6225 3.80113 17.1C3.80113 16.5775 3.98739 16.13 4.3599 15.7576C4.73178 15.3859 5.17904 15.2 5.7017 15.2C6.22435 15.2 6.67162 15.3859 7.0435 15.7576C7.41601 16.13 7.60226 16.5775 7.60226 17.1C7.60226 17.6225 7.41601 18.0699 7.0435 18.4423C6.67162 18.8141 6.22435 19 5.7017 19ZM15.2045 19C14.6819 19 14.2346 18.8141 13.8627 18.4423C13.4902 18.0699 13.304 17.6225 13.304 17.1C13.304 16.5775 13.4902 16.13 13.8627 15.7576C14.2346 15.3859 14.6819 15.2 15.2045 15.2C15.7272 15.2 16.1748 15.3859 16.5473 15.7576C16.9192 16.13 17.1051 16.5775 17.1051 17.1C17.1051 17.6225 16.9192 18.0699 16.5473 18.4423C16.1748 18.8141 15.7272 19 15.2045 19ZM4.89396 3.8L7.17464 8.55H13.8266L16.4399 3.8H4.89396ZM3.99119 1.9H18.0079C18.4355 1.9 18.7285 2.05833 18.8869 2.375C19.0453 2.69167 19.0373 3.02417 18.8631 3.3725L15.4896 9.4525C15.3154 9.76917 15.0857 10.0146 14.8007 10.1888C14.5156 10.3629 14.1909 10.45 13.8266 10.45H6.74701L5.7017 12.35H17.1051V14.25H5.7017C4.98899 14.25 4.45049 13.9371 4.08622 13.3114C3.72194 12.6863 3.7061 12.065 4.0387 11.4475L5.32158 9.12L1.90057 1.9H0V0H3.08842L3.99119 1.9Z" fill="#F3F3F7"/>
</svg>
