<svg width="24" height="21" viewBox="0 0 24 21" fill="none" xmlns="http://www.w3.org/2000/svg">
<path d="M1.92826 20.8854C1.46915 21.0718 1.033 21.0308 0.619799 20.7623C0.2066 20.4947 0 20.1044 0 19.5916V14.3815C0 14.0551 0.0918222 13.7637 0.275466 13.5073C0.459111 13.2509 0.711621 13.0877 1.033 13.0178L11.0187 10.5001L1.033 7.98248C0.711621 7.91255 0.459111 7.74937 0.275466 7.49295C0.0918222 7.23652 0 6.94513 0 6.61877V1.40867C0 0.895814 0.2066 0.505115 0.619799 0.236568C1.033 -0.0310474 1.46915 -0.0716098 1.92826 0.114882L23.1392 9.20633C23.7131 9.46276 24 9.89402 24 10.5001C24 11.1062 23.7131 11.5375 23.1392 11.7939L1.92826 20.8854Z" fill="white"/>
</svg>
