<svg width="22" height="22" viewBox="0 0 22 22" fill="none" xmlns="http://www.w3.org/2000/svg">
<path d="M7.99005 22L7.55224 18.48C7.31509 18.3883 7.09181 18.2783 6.88239 18.15C6.67224 18.0217 6.46683 17.8842 6.26617 17.7375L3.00995 19.1125L0 13.8875L2.81841 11.7425C2.80017 11.6142 2.79105 11.4902 2.79105 11.3707V10.6282C2.79105 10.5094 2.80017 10.3858 2.81841 10.2575L0 8.1125L3.00995 2.8875L6.26617 4.2625C6.46683 4.11583 6.67662 3.97833 6.89552 3.85C7.11443 3.72167 7.33333 3.61167 7.55224 3.52L7.99005 0H14.01L14.4478 3.52C14.6849 3.61167 14.9086 3.72167 15.1187 3.85C15.3281 3.97833 15.5332 4.11583 15.7338 4.2625L18.9901 2.8875L22 8.1125L19.1816 10.2575C19.1998 10.3858 19.209 10.5094 19.209 10.6282V11.3707C19.209 11.4902 19.1907 11.6142 19.1542 11.7425L21.9726 13.8875L18.9627 19.1125L15.7338 17.7375C15.5332 17.8842 15.3234 18.0217 15.1045 18.15C14.8856 18.2783 14.6667 18.3883 14.4478 18.48L14.01 22H7.99005ZM11.0547 14.85C12.1128 14.85 13.0158 14.4742 13.7637 13.7225C14.5116 12.9708 14.8856 12.0633 14.8856 11C14.8856 9.93667 14.5116 9.02917 13.7637 8.2775C13.0158 7.52583 12.1128 7.15 11.0547 7.15C9.97844 7.15 9.07071 7.52583 8.33154 8.2775C7.5931 9.02917 7.22388 9.93667 7.22388 11C7.22388 12.0633 7.5931 12.9708 8.33154 13.7225C9.07071 14.4742 9.97844 14.85 11.0547 14.85ZM11.0547 12.65C10.5987 12.65 10.2112 12.4894 9.89234 12.1682C9.57274 11.8477 9.41294 11.4583 9.41294 11C9.41294 10.5417 9.57274 10.1523 9.89234 9.8318C10.2112 9.5106 10.5987 9.35 11.0547 9.35C11.5108 9.35 11.8986 9.5106 12.2182 9.8318C12.5371 10.1523 12.6965 10.5417 12.6965 11C12.6965 11.4583 12.5371 11.8477 12.2182 12.1682C11.8986 12.4894 11.5108 12.65 11.0547 12.65ZM9.90547 19.8H12.0672L12.4503 16.885C13.0158 16.7383 13.5404 16.5227 14.0242 16.2382C14.5072 15.9544 14.9494 15.6108 15.3507 15.2075L18.0597 16.335L19.1269 14.465L16.7736 12.6775C16.8648 12.4208 16.9287 12.1502 16.9652 11.8657C17.0017 11.5819 17.0199 11.2933 17.0199 11C17.0199 10.7067 17.0017 10.4177 16.9652 10.1332C16.9287 9.8494 16.8648 9.57917 16.7736 9.3225L19.1269 7.535L18.0597 5.665L15.3507 6.82C14.9494 6.39833 14.5072 6.04523 14.0242 5.7607C13.5404 5.4769 13.0158 5.26167 12.4503 5.115L12.0945 2.2H9.93284L9.54975 5.115C8.98425 5.26167 8.45997 5.4769 7.97692 5.7607C7.49314 6.04523 7.05058 6.38917 6.64925 6.7925L3.9403 5.665L2.87313 7.535L5.22637 9.295C5.13516 9.57 5.07131 9.845 5.03483 10.12C4.99834 10.395 4.9801 10.6883 4.9801 11C4.9801 11.2933 4.99834 11.5775 5.03483 11.8525C5.07131 12.1275 5.13516 12.4025 5.22637 12.6775L2.87313 14.465L3.9403 16.335L6.64925 15.18C7.05058 15.6017 7.49314 15.9544 7.97692 16.2382C8.45997 16.5227 8.98425 16.7383 9.54975 16.885L9.90547 19.8Z" fill="white"/>
</svg>
