<svg width="19" height="19" viewBox="0 0 19 19" fill="none" xmlns="http://www.w3.org/2000/svg">
<path d="M0.563962 8.94174L8.95089 0.551138C9.30232 0.19955 9.78673 0 10.2901 0H17.1004C18.1452 0 19 0.855214 19 1.90048V8.71368C19 9.21731 18.8005 9.70193 18.4396 10.0535L10.0527 18.4441C9.31182 19.1853 8.10555 19.1853 7.36468 18.4441L0.554463 11.6309C-0.186397 10.8897 -0.186397 9.69242 0.563962 8.94174ZM14.7258 5.70143C15.5142 5.70143 16.1505 5.06477 16.1505 4.27607C16.1505 3.48737 15.5142 2.85071 14.7258 2.85071C13.9375 2.85071 13.3011 3.48737 13.3011 4.27607C13.3011 5.06477 13.9375 5.70143 14.7258 5.70143Z" fill="white"/>
</svg>
