<svg width="21" height="22" viewBox="0 0 21 22" fill="none" xmlns="http://www.w3.org/2000/svg">
<path d="M2.1875 22C1.58594 22 1.07115 21.7848 0.643125 21.3543C0.214375 20.9231 0 20.405 0 19.8V2.2C0 1.595 0.214375 1.0769 0.643125 0.6457C1.07115 0.215233 1.58594 0 2.1875 0H10.9375L17.5 6.6V11H15.3125V7.7H9.84375V2.2H2.1875V19.8H8.75V22H2.1875ZM15.6406 13.7775L16.8164 14.96L12.5781 19.195V20.35H13.7266L17.9648 16.115L19.1133 17.27L14.4102 22H10.9375V18.5075L15.6406 13.7775ZM19.1133 17.27L15.6406 13.7775L17.2266 12.1825C17.4271 11.9808 17.6823 11.88 17.9922 11.88C18.3021 11.88 18.5573 11.9808 18.7578 12.1825L20.6992 14.135C20.8997 14.3367 21 14.5933 21 14.905C21 15.2167 20.8997 15.4733 20.6992 15.675L19.1133 17.27Z" fill="black"/>
</svg>
