<svg width="19" height="19" viewBox="0 0 19 19" fill="none" xmlns="http://www.w3.org/2000/svg">
<path d="M2 17.1C1.45 17.1 0.979167 16.914 0.5875 16.5419C0.195833 16.1698 0 15.7225 0 15.2V1.9C0 1.3775 0.195833 0.930208 0.5875 0.558125C0.979167 0.186042 1.45 0 2 0H16C16.55 0 17.0208 0.186042 17.4125 0.558125C17.8042 0.930208 18 1.3775 18 1.9V10.2837C17.7 10.1096 17.3833 9.96708 17.05 9.85625C16.7167 9.74542 16.3667 9.65833 16 9.595V1.9H2V15.2H9C9 15.5325 9.025 15.8571 9.075 16.1737C9.125 16.4904 9.20833 16.7992 9.325 17.1H2ZM14 19V16.15H11V14.25H14V11.4H16V14.25H19V16.15H16V19H14ZM5 13.3C5.28333 13.3 5.52083 13.209 5.7125 13.0269C5.90417 12.8448 6 12.6192 6 12.35C6 12.0808 5.90417 11.8552 5.7125 11.6731C5.52083 11.491 5.28333 11.4 5 11.4C4.71667 11.4 4.47917 11.491 4.2875 11.6731C4.09583 11.8552 4 12.0808 4 12.35C4 12.6192 4.09583 12.8448 4.2875 13.0269C4.47917 13.209 4.71667 13.3 5 13.3ZM5 9.5C5.28333 9.5 5.52083 9.40896 5.7125 9.22687C5.90417 9.04479 6 8.81917 6 8.55C6 8.28083 5.90417 8.05521 5.7125 7.87312C5.52083 7.69104 5.28333 7.6 5 7.6C4.71667 7.6 4.47917 7.69104 4.2875 7.87312C4.09583 8.05521 4 8.28083 4 8.55C4 8.81917 4.09583 9.04479 4.2875 9.22687C4.47917 9.40896 4.71667 9.5 5 9.5ZM5 5.7C5.28333 5.7 5.52083 5.60896 5.7125 5.42687C5.90417 5.24479 6 5.01917 6 4.75C6 4.48083 5.90417 4.25521 5.7125 4.07312C5.52083 3.89104 5.28333 3.8 5 3.8C4.71667 3.8 4.47917 3.89104 4.2875 4.07312C4.09583 4.25521 4 4.48083 4 4.75C4 5.01917 4.09583 5.24479 4.2875 5.42687C4.47917 5.60896 4.71667 5.7 5 5.7ZM8 9.5H14V7.6H8V9.5ZM8 5.7H14V3.8H8V5.7ZM8 13.3H9.35C9.48333 12.9358 9.65 12.5954 9.85 12.2787C10.05 11.9621 10.2833 11.6692 10.55 11.4H8V13.3Z" fill="#F3F3F7"/>
</svg>
